<svg width="1600" height="1200" viewBox="0 0 1600 1200" fill="none" xmlns="http://www.w3.org/2000/svg">
<g clip-path="url(#clip0)">
<path d="M1600 0H0V1200H1600V0Z" fill="url(#paint0_linear)"/>
<g filter="url(#filter0_f)">
<path d="M261 1380C448.777 1380 601 1238.52 601 1064C601 889.478 448.777 748 261 748C73.2232 748 -79 889.478 -79 1064C-79 1238.52 73.2232 1380 261 1380Z" fill="url(#paint1_linear)"/>
</g>
<g filter="url(#filter1_f)">
<path d="M1115.28 1380C1320.88 1380 1487.56 1225.09 1487.56 1034C1487.56 842.909 1320.88 688 1115.28 688C909.677 688 743.002 842.909 743.002 1034C743.002 1225.09 909.677 1380 1115.28 1380Z" fill="url(#paint2_linear)"/>
</g>
<g filter="url(#filter2_f)">
<path d="M124.75 687.5C476.417 687.5 761.5 402.417 761.5 50.75C761.5 -300.917 476.417 -586 124.75 -586C-226.917 -586 -512 -300.917 -512 50.75C-512 402.417 -226.917 687.5 124.75 687.5Z" fill="url(#paint3_linear)"/>
</g>
<g clip-path="url(#clip1)">
<path d="M370.463 389.614C344.823 389.614 319.436 384.567 295.749 374.757C272.063 364.951 250.54 350.575 232.41 332.453C214.28 314.33 199.9 292.817 190.087 269.141C180.275 245.464 175.227 220.086 175.227 194.46H370.463V389.614Z" fill="black" fill-opacity="0.33"/>
<path d="M-58 -40.7811C-32.3617 -40.7811 -6.97331 -35.7334 16.7128 -25.9243C40.3987 -16.1175 61.9215 -1.74223 80.051 16.3805C98.1806 34.5011 112.562 56.0163 122.374 79.6926C132.187 103.369 137.235 128.747 137.235 154.373H-58V-40.7811Z" fill="black" fill-opacity="0.33"/>
<path d="M-58 292.036C-58 238.147 -14.2946 194.46 39.6177 194.46H137.235V389.614H39.6177C-14.2946 389.614 -58 345.927 -58 292.036Z" fill="black" fill-opacity="0.33"/>
<path d="M175.227 57.8513C175.227 111.74 218.931 155.427 272.844 155.427H370.463V-39.7249H272.844C218.931 -39.7249 175.227 3.96226 175.227 57.8513Z" fill="black" fill-opacity="0.33"/>
<path d="M1032.15 -1.74884C1032.15 23.8777 1027.1 49.2558 1017.29 72.9321C1007.48 96.6106 993.098 118.124 974.97 136.244C956.84 154.367 935.318 168.742 911.631 178.549C887.944 188.356 862.557 193.404 836.917 193.404V-1.74884H1032.15Z" fill="black" fill-opacity="0.33"/>
<path d="M1655.85 232.436C1643.1 232.436 1630.48 229.911 1618.7 225.007C1606.92 220.104 1596.22 212.915 1587.2 203.856C1578.18 194.795 1571.03 184.038 1566.15 172.199C1561.27 160.36 1558.76 147.673 1558.76 134.857C1558.76 122.044 1561.27 109.355 1566.15 97.518C1571.03 85.6788 1578.18 74.9223 1587.2 65.8609C1596.22 56.7996 1606.92 49.613 1618.7 44.7096C1630.48 39.8039 1643.1 37.2812 1655.85 37.2812V232.436Z" fill="black" fill-opacity="0.33"/>
<path d="M408.455 192.35C421.206 192.35 433.83 194.875 445.609 199.778C457.388 204.682 468.093 211.868 477.108 220.929C486.123 229.991 493.276 240.747 498.155 252.587C503.034 264.424 505.545 277.113 505.545 289.926C505.545 302.741 503.034 315.428 498.155 327.267C493.276 339.107 486.123 349.863 477.108 358.925C468.093 367.986 457.388 375.172 445.609 380.076C433.83 384.979 421.206 387.504 408.455 387.504V192.35Z" fill="black" fill-opacity="0.33"/>
<path d="M798.926 387.504C773.288 387.504 747.901 382.47 724.212 372.688C700.525 362.907 679.003 348.572 660.873 330.498C642.745 312.426 628.364 290.971 618.552 267.357C608.74 243.745 603.69 218.436 603.69 192.878C603.69 167.318 608.74 142.008 618.552 118.396C628.364 94.7823 642.745 73.327 660.873 55.2553C679.003 37.1814 700.525 22.846 724.212 13.0658C747.901 3.28329 773.288 -1.74884 798.926 -1.74884V387.504Z" fill="black" fill-opacity="0.33"/>
<path d="M1266.43 387.504C1266.43 361.875 1271.47 336.5 1281.25 312.821C1291.04 289.145 1305.38 267.632 1323.46 249.509C1341.55 231.386 1363.01 217.013 1386.63 207.204C1410.25 197.397 1435.57 192.35 1461.14 192.35C1486.71 192.35 1512.03 197.397 1535.65 207.204C1559.28 217.013 1580.74 231.386 1598.82 249.509C1616.9 267.632 1631.24 289.145 1641.03 312.821C1650.81 336.5 1655.85 361.875 1655.85 387.504H1266.43Z" fill="black" fill-opacity="0.33"/>
<path d="M1460.62 -1.74884C1460.62 23.8777 1455.58 49.2558 1445.79 72.9321C1436.01 96.6106 1421.66 118.124 1403.59 136.244C1385.5 154.367 1364.04 168.742 1340.42 178.549C1316.8 188.356 1291.48 193.404 1265.91 193.404C1240.34 193.404 1215.02 188.356 1191.4 178.549C1167.77 168.742 1146.31 154.367 1128.23 136.244C1110.15 118.124 1095.81 96.6106 1086.02 72.9321C1076.23 49.2558 1071.2 23.8777 1071.2 -1.74884H1460.62Z" fill="black" fill-opacity="0.33"/>
<path d="M1129.77 192.35C1183.68 192.35 1227.39 236.037 1227.39 289.926V387.504H1032.15V289.926C1032.15 236.037 1075.86 192.35 1129.77 192.35Z" fill="black" fill-opacity="0.33"/>
<path d="M914.484 232.436C957.324 232.436 992.052 267.148 992.052 309.97C992.052 352.79 957.324 387.504 914.484 387.504C871.646 387.504 836.917 352.79 836.917 309.97C836.917 267.148 871.646 232.436 914.484 232.436Z" fill="black" fill-opacity="0.33"/>
<path d="M486.021 -0.694946C528.861 -0.694946 563.587 34.0174 563.587 76.8393C563.587 119.661 528.861 154.373 486.021 154.373C443.183 154.373 408.455 119.661 408.455 76.8393C408.455 34.0174 443.183 -0.694946 486.021 -0.694946Z" fill="black" fill-opacity="0.33"/>
<path d="M760.934 626.963C748.185 626.963 735.56 624.438 723.779 619.534C712 614.633 701.298 607.442 692.28 598.385C683.265 589.322 676.113 578.565 671.236 566.726C666.356 554.889 663.845 542.2 663.845 529.387C663.845 516.571 666.356 503.882 671.236 492.045C676.113 480.206 683.265 469.449 692.28 460.388C701.298 451.329 712 444.138 723.779 439.237C735.56 434.333 748.185 431.808 760.934 431.808V626.963Z" fill="black" fill-opacity="0.33"/>
<path d="M137.235 625.909H332.471V821.061C306.831 821.061 281.444 816.016 257.757 806.207C234.071 796.398 212.549 782.022 194.418 763.902C176.288 745.779 161.908 724.266 152.096 700.59C142.285 676.914 137.235 651.536 137.235 625.909Z" fill="black" fill-opacity="0.33"/>
<path d="M370.463 431.808C396.101 431.808 421.49 436.843 445.174 446.623C468.861 456.405 490.383 470.741 508.513 488.815C526.643 506.889 541.024 528.344 550.836 551.956C560.65 575.568 565.698 600.877 565.698 626.435C565.698 651.993 560.65 677.302 550.836 700.916C541.024 724.528 526.643 745.983 508.513 764.055C490.383 782.129 468.861 796.464 445.174 806.247C421.49 816.029 396.101 821.061 370.463 821.061V431.808Z" fill="black" fill-opacity="0.33"/>
<path d="M1189.4 431.808C1189.4 457.437 1184.36 482.815 1174.58 506.489C1164.79 530.165 1150.45 551.681 1132.37 569.801C1114.29 587.924 1092.82 602.299 1069.2 612.108C1045.58 621.915 1020.26 626.963 994.689 626.963C969.12 626.963 943.8 621.915 920.178 612.108C896.558 602.299 875.091 587.924 857.012 569.801C838.931 551.681 824.588 530.165 814.802 506.489C805.017 482.815 799.982 457.437 799.982 431.808H1189.4Z" fill="black" fill-opacity="0.33"/>
<path d="M-58 1055.25V665.993C-32.3612 665.993 -6.97376 671.027 16.7135 680.808C40.4007 690.59 61.9231 704.928 80.0525 722.999C98.1817 741.073 112.563 762.528 122.374 786.14C132.186 809.752 137.235 835.062 137.235 860.619C137.235 886.179 132.186 911.489 122.374 935.101C112.563 958.713 98.1817 980.168 80.0521 998.24C61.9231 1016.31 40.4007 1030.65 16.7135 1040.43C-6.97376 1050.21 -32.3612 1055.25 -58 1055.25Z" fill="black" fill-opacity="0.33"/>
<path d="M1655.85 431.808V626.963H1460.61C1460.61 601.334 1465.66 575.958 1475.48 552.282C1485.29 528.606 1499.67 507.09 1517.8 488.97C1535.93 470.847 1557.45 456.472 1581.14 446.663C1604.82 436.856 1630.21 431.808 1655.85 431.808Z" fill="black" fill-opacity="0.33"/>
<path d="M137.235 529.387C137.235 583.276 93.5305 626.963 39.6177 626.963H-58V431.808H39.6177C93.5305 431.808 137.235 475.495 137.235 529.387Z" fill="black" fill-opacity="0.33"/>
<path d="M1227.39 529.387C1227.39 475.495 1271.09 431.808 1325 431.808H1422.62V626.963H1325C1271.09 626.963 1227.39 583.276 1227.39 529.387Z" fill="black" fill-opacity="0.33"/>
<path d="M252.794 431.808C295.631 431.808 330.36 466.523 330.36 509.342C330.36 552.164 295.631 586.877 252.794 586.877C209.954 586.877 175.227 552.164 175.227 509.342C175.227 466.523 209.954 431.808 252.794 431.808Z" fill="black" fill-opacity="0.33"/>
</g>
<path d="M464.717 1078.27C217.492 1134.45 29.2643 1068.91 -33.9465 1029.11V1228.09L1618.9 1249.16C1756.24 1178.15 1945.72 997.745 1604.85 844.182C1178.76 652.227 773.747 1008.05 464.717 1078.27Z" fill="url(#paint4_linear)" fill-opacity="0.48"/>
</g>
<defs>
<filter id="filter0_f" x="-394.416" y="432.584" width="1310.83" height="1262.83" filterUnits="userSpaceOnUse" color-interpolation-filters="sRGB">
<feFlood flood-opacity="0" result="BackgroundImageFix"/>
<feBlend mode="normal" in="SourceGraphic" in2="BackgroundImageFix" result="shape"/>
<feGaussianBlur stdDeviation="157.708" result="effect1_foregroundBlur"/>
</filter>
<filter id="filter1_f" x="397.642" y="342.64" width="1435.28" height="1382.72" filterUnits="userSpaceOnUse" color-interpolation-filters="sRGB">
<feFlood flood-opacity="0" result="BackgroundImageFix"/>
<feBlend mode="normal" in="SourceGraphic" in2="BackgroundImageFix" result="shape"/>
<feGaussianBlur stdDeviation="172.68" result="effect1_foregroundBlur"/>
</filter>
<filter id="filter2_f" x="-982.274" y="-1056.27" width="2214.05" height="2214.05" filterUnits="userSpaceOnUse" color-interpolation-filters="sRGB">
<feFlood flood-opacity="0" result="BackgroundImageFix"/>
<feBlend mode="normal" in="SourceGraphic" in2="BackgroundImageFix" result="shape"/>
<feGaussianBlur stdDeviation="235.137" result="effect1_foregroundBlur"/>
</filter>
<linearGradient id="paint0_linear" x1="1452.78" y1="-0.000110361" x2="574.215" y2="1444.79" gradientUnits="userSpaceOnUse">
<stop stop-color="#1B1219"/>
<stop offset="0.720964" stop-color="#BDBBBD"/>
<stop offset="1" stop-color="white"/>
</linearGradient>
<linearGradient id="paint1_linear" x1="-33.9427" y1="909.668" x2="235.209" y2="1390.88" gradientUnits="userSpaceOnUse">
<stop stop-color="#9FABA5" stop-opacity="0.93"/>
<stop offset="0.479167" stop-color="#010905" stop-opacity="0.62"/>
<stop offset="1" stop-color="#012000" stop-opacity="0.91"/>
</linearGradient>
<linearGradient id="paint2_linear" x1="792.335" y1="865.016" x2="1110.8" y2="1319.2" gradientUnits="userSpaceOnUse">
<stop stop-color="#040400" stop-opacity="0.21"/>
<stop offset="1" stop-color="#110810" stop-opacity="0.87"/>
</linearGradient>
<linearGradient id="paint3_linear" x1="-427.617" y1="-260.234" x2="433.024" y2="640.964" gradientUnits="userSpaceOnUse">
<stop stop-color="#4B4849" stop-opacity="0.85"/>
<stop offset="1" stop-color="#24231E" stop-opacity="0.69"/>
</linearGradient>
<linearGradient id="paint4_linear" x1="1598" y1="746" x2="-181.5" y2="1375.5" gradientUnits="userSpaceOnUse">
<stop stop-opacity="0.67"/>
<stop offset="1" stop-color="#530C0C" stop-opacity="0.66"/>
</linearGradient>
<clipPath id="clip0">
<rect width="1600" height="1200" fill="white"/>
</clipPath>
<clipPath id="clip1">
<rect width="1716" height="1704" fill="white" transform="translate(-58 -378)"/>
</clipPath>
</defs>
</svg>
