<svg width="58" height="58" viewBox="0 0 58 58" fill="none" xmlns="http://www.w3.org/2000/svg">
<path d="M45.9167 53.1667H12.0833C9.41396 53.1667 7.25 51.0028 7.25 48.3333V14.5C7.25 11.8306 9.41396 9.66668 12.0833 9.66668H16.9167V4.83334H21.75V9.66668H36.25V4.83334H41.0833V9.66668H45.9167C48.5861 9.66668 50.75 11.8306 50.75 14.5V48.3333C50.75 51.0028 48.5861 53.1667 45.9167 53.1667ZM12.0833 24.1667V48.3333H45.9167V24.1667H12.0833ZM12.0833 14.5V19.3333H45.9167V14.5H12.0833ZM41.0833 43.5H36.25V38.6667H41.0833V43.5ZM31.4167 43.5H26.5833V38.6667H31.4167V43.5ZM21.75 43.5H16.9167V38.6667H21.75V43.5ZM41.0833 33.8333H36.25V29H41.0833V33.8333ZM31.4167 33.8333H26.5833V29H31.4167V33.8333ZM21.75 33.8333H16.9167V29H21.75V33.8333Z" fill="white"/>
</svg>
