<svg width="58" height="58" viewBox="0 0 58 58" fill="none" xmlns="http://www.w3.org/2000/svg">
<path d="M23.8735 32.7108L20.4558 29.2931L25.5824 24.1666L20.4558 19.0401L23.8735 15.6224L29 20.749L34.1265 15.6224L37.5441 19.0401L32.4177 24.1666L37.5441 29.2931L34.1265 32.7108L29 27.5843L23.8735 32.7108Z" fill="white"/>
<path d="M7.25 12.0833V50.75L18.85 42.05C19.6857 41.4207 20.7039 41.0814 21.75 41.0833H45.9167C48.5861 41.0833 50.75 38.9195 50.75 36.25V12.0833C50.75 9.41396 48.5861 7.25 45.9167 7.25H12.0833C9.41396 7.25 7.25 9.41396 7.25 12.0833ZM12.0833 41.0833V12.0833H45.9167V36.25H20.1405C19.0943 36.2471 18.0758 36.5866 17.2405 37.2167L12.0833 41.0833Z" fill="white"/>
</svg>
