<svg width="58" height="58" viewBox="0 0 58 58" fill="none" xmlns="http://www.w3.org/2000/svg">
<path d="M4.83334 45.9167H9.66667C9.66667 40.578 13.9946 36.25 19.3333 36.25C24.672 36.25 29 40.578 29 45.9167H33.8333C33.8333 37.9085 27.3414 31.4167 19.3333 31.4167C11.3252 31.4167 4.83334 37.9085 4.83334 45.9167Z" fill="white"/>
<path d="M9.66666 19.3333C9.66666 13.9946 13.9946 9.66666 19.3333 9.66666C24.672 9.66666 29 13.9946 29 19.3333C28.9932 24.6693 24.6693 28.9932 19.3333 29C13.9946 29 9.66666 24.672 9.66666 19.3333ZM14.5054 19.2641C14.4676 21.9042 16.5555 24.0862 19.1948 24.1645C21.8341 24.2428 24.0478 22.1886 24.1667 19.5508V19.3333C24.1667 16.6639 22.0027 14.5 19.3333 14.5C16.6929 14.5027 14.5432 16.6239 14.5054 19.2641Z" fill="white"/>
<path d="M44.3193 36.2486C43.8166 35.8015 43.2487 35.3351 42.6469 34.8421L42.5333 34.7502L42.5198 34.7393C39.7261 32.4599 36.25 29.6237 36.25 26.0986C36.2505 24.9289 36.722 23.8085 37.5581 22.9905C38.3943 22.1724 39.5248 21.7257 40.6943 21.751C42.0771 21.7473 43.3958 22.3337 44.3193 23.3629C45.2429 22.3339 46.5614 21.7476 47.9443 21.751C49.1125 21.7283 50.2408 22.1766 51.075 22.9948C51.9093 23.8131 52.3791 24.9325 52.3788 26.101C52.3788 29.6409 48.8759 32.4979 46.0593 34.7952L46.052 34.801L45.9143 34.9146L45.8703 34.9506C45.3137 35.4061 44.7878 35.8368 44.3168 36.2534L44.3193 36.2486Z" fill="white"/>
</svg>
