<svg width="58" height="58" viewBox="0 0 58 58" fill="none" xmlns="http://www.w3.org/2000/svg">
<path d="M21.75 7.25C15.0766 7.25 9.66667 12.6599 9.66667 19.3333C9.66667 26.0067 15.0766 31.4167 21.75 31.4167C28.4234 31.4167 33.8333 26.0067 33.8333 19.3333C33.8333 12.6599 28.4234 7.25 21.75 7.25ZM14.5 19.3333C14.5 15.3293 17.746 12.0833 21.75 12.0833C25.7542 12.0833 29 15.3293 29 19.3333C29 23.3374 25.7542 26.5833 21.75 26.5833C17.746 26.5833 14.5 23.3374 14.5 19.3333Z" fill="white"/>
<path d="M40.862 19.8609C40.1822 19.5142 39.4299 19.3335 38.6667 19.3335V14.5002C40.193 14.5002 41.6977 14.8614 43.0575 15.5548C43.2073 15.6311 43.3548 15.7113 43.5 15.7951C44.6731 16.4723 45.6924 17.3896 46.4901 18.4888C47.3867 19.7242 47.9778 21.1542 48.2154 22.662C48.4532 24.1698 48.3302 25.7124 47.857 27.1636C47.3838 28.6146 46.5738 29.9331 45.493 31.0109C44.4123 32.089 43.0918 32.8954 41.6394 33.365C40.347 33.7826 38.9828 33.9228 37.636 33.7782C37.4695 33.7604 37.3029 33.7381 37.1369 33.7115C35.6309 33.4701 34.2033 32.8759 32.9708 31.9771L32.9684 31.9752L35.8174 28.071C36.4339 28.5208 37.1483 28.8183 37.9018 28.9389C38.6553 29.0597 39.4267 29.0003 40.1529 28.7656C40.8791 28.5309 41.5394 28.1276 42.0797 27.5887C42.6201 27.0498 43.0251 26.3905 43.2617 25.665C43.4983 24.9395 43.5597 24.1681 43.441 23.4143C43.3221 22.6605 43.0266 21.9455 42.5783 21.3278C42.13 20.7102 41.542 20.2075 40.862 19.8609Z" fill="white"/>
<path d="M48.3287 50.75C48.3287 49.4813 48.0789 48.2248 47.5934 47.0525C47.1076 45.8802 46.3959 44.8151 45.4988 43.9178C44.6015 43.0208 43.5365 42.3091 42.3642 41.8233C41.1918 41.3378 39.9354 41.0879 38.6667 41.0879V36.25C40.3151 36.25 41.9495 36.5311 43.5 37.0792C43.7407 37.1642 43.9792 37.2558 44.2156 37.3537C45.9749 38.0826 47.5733 39.1505 48.9196 40.4971C50.2662 41.8434 51.3341 43.4418 52.063 45.2011C52.1609 45.4374 52.2524 45.676 52.3375 45.9167C52.8856 47.4672 53.1667 49.1016 53.1667 50.75H48.3287Z" fill="white"/>
<path d="M38.6667 50.75H33.8333C33.8333 44.0766 28.4234 38.6667 21.75 38.6667C15.0766 38.6667 9.66666 44.0766 9.66666 50.75H4.83333C4.83333 41.4072 12.4072 33.8333 21.75 33.8333C31.0928 33.8333 38.6667 41.4072 38.6667 50.75Z" fill="white"/>
</svg>
