<svg id="Layer_1_copy" height="512" viewBox="0 0 64 64" width="512" xmlns="http://www.w3.org/2000/svg" data-name="Layer 1 copy"><path d="m61.564 24.82.403 1.18-1.54 13.4-14.994 4.6 3.1 7-2.066 5-6.2-3-5.167 5h-13.433l-1.189-4.59-.878-3.41-3.1 5h-5.167l-1.033-10-4.712-8.61-4.588-8.39 9.3-10 7.233-3h10.334l7.233 5 9.3 2-2.067-6 6.2-2 2.067.98 2.139 1 10.261-2.98-3.1 7z" fill="#3bb03c"/><path d="m50.6 14.98-4.133 2.02-.527 6.34-6.707.66-4.133 3h-7.233l-3.1 7h-12.4l-6.779 2.39-4.588-8.39 9.3-10 7.233-3h10.334l7.233 5 9.3 2-2.067-6 6.2-2z" fill="#bbd036"/><g fill="#156015"><path d="m60.427 39.4-14.994 4.6 3.1 7-2.066 5-6.2-3-5.167 5h-13.433l-1.189-4.59 3.255-3.41 8.267-1 2.067-8 7.233-4 11.367-2 2.066-6 6.831-4.18.403 1.18z"/><path d="m32 34h-2a1 1 0 0 1 0-2h2a1 1 0 0 1 0 2z"/><path d="m18 39h-2a1 1 0 0 1 0-2h2a1 1 0 0 1 0 2z"/><path d="m20 29h-1a1 1 0 0 1 0-2h1a1 1 0 0 1 0 2z"/><path d="m24 29h-1a1 1 0 0 1 0-2h1a1 1 0 0 1 0 2z"/></g></svg>