<?xml version="1.0" encoding="utf-8"?>
<!-- Generator: Adobe Illustrator 19.0.0, SVG Export Plug-In . SVG Version: 6.00 Build 0)  -->
<svg xmlns="http://www.w3.org/2000/svg" xmlns:xlink="http://www.w3.org/1999/xlink" version="1.1" id="Layer_1" x="0px" y="0px" viewBox="0 2 98 98" style="enable-background:new 0 2 98 98;" xml:space="preserve" width="512" height="512">
<style type="text/css">
	.st0{fill:url(#SVGID_1_);}
</style>
<linearGradient id="SVGID_1_" gradientUnits="userSpaceOnUse" x1="49" y1="93.5" x2="49" y2="12.5996" gradientTransform="matrix(1 0 0 -1 0 104)">
	<stop offset="0" style="stop-color:#00EFD1"/>
	<stop offset="1" style="stop-color:#00ACEA"/>
</linearGradient>
<path class="st0" d="M88.6,86.3l-20-20c5-5.9,7.9-13.5,7.9-21.8c0-18.7-15.3-34-34-34s-34,15.3-34,34s15.3,34,34,34  c8.3,0,15.9-3,21.8-7.9l20,20c0.6,0.6,1.4,0.9,2.1,0.9s1.5-0.3,2.1-0.9C89.7,89.4,89.7,87.5,88.6,86.3z M14.5,44.5  c0-15.4,12.6-28,28-28s28,12.6,28,28c0,7.7-3.1,14.6-8.1,19.7c0,0-0.1,0-0.1,0.1c0,0,0,0.1-0.1,0.1c-0.8,0.8-1.7,1.6-2.6,2.3V65  c0-5.9-3.1-11.1-7.8-14.1c2.8-2.5,4.7-6.1,4.7-10.2c0-7.5-6.1-13.6-13.6-13.6s-13.6,6.1-13.6,13.6c0,4.1,1.8,7.7,4.7,10.2  c-4.7,3-7.8,8.2-7.8,14.1v2.2C19.2,62.2,14.5,53.9,14.5,44.5z M35.3,40.8c0-4.2,3.4-7.6,7.6-7.6s7.6,3.4,7.6,7.6  c0,4.2-3.4,7.6-7.6,7.6S35.3,44.9,35.3,40.8z M32.2,70.6V65c0-5.9,4.8-10.7,10.7-10.7S53.6,59.1,53.6,65v5.2  c-3.4,1.5-7.2,2.3-11.1,2.3C38.9,72.5,35.4,71.8,32.2,70.6z"/>
</svg>
