<svg id="Capa_1" enable-background="new 0 0 512 512" height="512" viewBox="0 0 512 512" width="512" xmlns="http://www.w3.org/2000/svg"><g><circle cx="256" cy="256" fill="#ff4e51" r="256"/><path d="m122.602 427.339s40.25 40.261 78.793 78.804c17.597 3.824 35.862 5.857 54.605 5.857 141.385 0 256-114.615 256-256 0-27.994-4.509-54.931-12.814-80.144l-99.992-99.992s-282.621 345.707-276.592 351.475z" fill="#f72553"/><g><path d="m356.975 118.083h-79.865l-143.195 286.389 223.06-31.665z" fill="#6c3beb"/><path d="m144.47 118.083c-17.46 0-31.665 14.205-31.665 31.665v254.724h164.305v-286.389z" fill="#89c1ff"/><path d="m356.975 372.807h-79.865l-84.439 31.665 84.439 31.664h79.865v-21.109l-10.555-10.555 10.555-10.555z" fill="#1e8aff"/><path d="m144.47 372.807c-17.46 0-31.665 14.205-31.665 31.665s14.205 31.665 31.665 31.665h132.64v-63.329h-132.64z" fill="#54a5ff"/><path d="m356.975 393.917h-79.865l-14.073 10.555 14.073 10.555h79.865z" fill="#edeff3"/><path d="m144.47 393.917c-5.82 0-10.555 4.735-10.555 10.555s4.735 10.555 10.555 10.555h132.64v-21.11z" fill="#fff"/><path d="m399.194 75.864h-122.084l-100.975 286.388 223.059-31.664z" fill="#1e8aff"/><path d="m186.69 75.864c-17.46 0-31.665 14.205-31.665 31.665v254.724h122.085v-286.389z" fill="#54a5ff"/><path d="m399.194 330.588h-122.084l-42.22 31.664 42.22 31.665h122.084v-21.11l-10.555-10.555 10.555-10.555z" fill="#0572eb"/><path d="m186.69 330.588c-17.46 0-31.665 14.205-31.665 31.665s14.205 31.665 31.665 31.665h90.42v-63.329h-90.42z" fill="#1e8aff"/><path d="m399.194 351.697h-122.084l-14.073 10.555 14.073 10.555h122.084z" fill="#edeff3"/><path d="m186.69 351.697c-5.82 0-10.555 4.735-10.555 10.555s4.735 10.555 10.555 10.555h90.42v-21.11z" fill="#fff"/><path d="m356.975 118.083h-79.865l-52.775 85.143 52.775 85.142h79.865z" fill="#0572eb"/><path d="m197.245 118.083h79.865v170.285h-79.865z" fill="#1e8aff"/></g></g></svg>