<?xml version="1.0" encoding="iso-8859-1"?>
<!-- Generator: Adobe Illustrator 19.0.0, SVG Export Plug-In . SVG Version: 6.00 Build 0)  -->
<svg version="1.1" id="Capa_1" xmlns="http://www.w3.org/2000/svg" xmlns:xlink="http://www.w3.org/1999/xlink" x="0px" y="0px"
	 viewBox="0 0 512 512" style="enable-background:new 0 0 512 512;" xml:space="preserve">
<polygon style="fill:#FFC46C;" points="409,502 409,99.916 103,83.181 103,481.888 "/>
<polygon style="fill:#EF9191;" points="103,83.181 348.983,10 348.983,96.159 "/>
<g>
	<path style="fill:#EF434C;" d="M167.189,225.437c0-49.605,40.256-89.817,89.914-89.817s89.914,40.213,89.914,89.817
		c0,49.605-40.256,145.954-89.914,145.954S167.189,275.042,167.189,225.437z"/>
	<polygon style="fill:#EF434C;" points="220.638,415.183 295.567,415.183 263.507,370.775 251.073,370.801 	"/>
</g>
<path d="M275.04,189.87c13.57,6.86,21.99,20.49,21.98,35.57c0.02,6.75-1.71,17.4-4.53,27.8c-2.4,8.94-6.87,22.7-14.47,37.48
	c-0.26,0.5-0.51,0.99-0.75,1.45c-2.57,4.88-0.69,10.93,4.19,13.5c1.43,0.76,3.04,1.15,4.65,1.15c3.73,0,7.12-2.04,8.86-5.34
	c0.24-0.47,0.51-0.98,0.84-1.62c6.65-12.94,12.18-27.26,15.99-41.42c3.39-12.65,5.19-24.07,5.22-33
	c-0.01-11.28-3.18-22.27-9.17-31.78c-5.83-9.25-14.06-16.74-23.81-21.65c-1.41-0.71-2.92-1.07-4.49-1.07c-3.81,0-7.23,2.11-8.94,5.5
	C268.13,181.36,270.11,187.39,275.04,189.87z"/>
<path d="M262.16,338.49c2.2,0,4.28-0.7,6.03-2.03c0.01-0.01,0.01-0.01,0.01-0.01c4.39-3.34,5.25-9.62,1.92-14.01
	c-1.91-2.51-4.82-3.95-7.97-3.95c-2.2,0-4.29,0.7-6.05,2.04c-2.12,1.61-3.49,3.96-3.85,6.6c-0.37,2.65,0.33,5.28,1.94,7.41
	C256.1,337.05,259,338.49,262.16,338.49z"/>
<path d="M409.546,89.931l-50.563-2.765V10c0-3.157-1.491-6.129-4.021-8.016c-2.531-1.888-5.807-2.469-8.83-1.569
	c0,0-245.981,73.186-245.98,73.189c-1.49,0.444-2.875,1.224-4.027,2.315C94.13,77.808,93,80.434,93,83.181v398.707
	c0,5.268,4.087,9.633,9.344,9.979l306,20.112c0.219,0.014,0.438,0.021,0.656,0.021c2.53,0,4.976-0.96,6.835-2.701
	c2.019-1.891,3.165-4.533,3.165-7.299V99.916C419,94.606,414.849,90.222,409.546,89.931z M338.983,23.409v62.664l-177.924-9.731
	L338.983,23.409z M399,491.322l-286-18.798V93.743l286,15.642V491.322z"/>
<path d="M235.123,376.352l-22.734,33.179c-2.097,3.061-2.327,7.032-0.597,10.315s5.136,5.337,8.847,5.337h28.463V453.1
	c0,5.523,4.477,10,10,10c5.523,0,10-4.477,10-10v-27.917h26.465c3.755,0,7.194-2.104,8.904-5.447
	c1.709-3.344,1.402-7.363-0.797-10.408l-24.015-33.253c18.021-8.514,35.194-27.077,49.833-54.327
	c16.721-31.125,27.526-68.93,27.526-96.311c0-55.04-44.821-99.817-99.914-99.817s-99.914,44.778-99.914,99.817
	c0,27.381,10.805,65.186,27.526,96.311C199.51,349.288,216.892,367.963,235.123,376.352z M276.009,405.183h-36.397l16.322-23.822
	c0.39,0.009,0.779,0.03,1.169,0.03c0.564,0,1.128-0.023,1.692-0.043L276.009,405.183z M257.103,145.62
	c44.065,0,79.914,35.806,79.914,79.817c0,23.95-10.105,58.851-25.145,86.846c-16.766,31.208-36.729,49.107-54.77,49.107
	s-38.003-17.899-54.77-49.107c-15.04-27.996-25.145-62.896-25.145-86.846C177.189,181.426,213.038,145.62,257.103,145.62z"/>
<g>
</g>
<g>
</g>
<g>
</g>
<g>
</g>
<g>
</g>
<g>
</g>
<g>
</g>
<g>
</g>
<g>
</g>
<g>
</g>
<g>
</g>
<g>
</g>
<g>
</g>
<g>
</g>
<g>
</g>
</svg>
