<svg width="46" height="46" viewBox="0 0 46 46" fill="none" xmlns="http://www.w3.org/2000/svg">
<path d="M36.4167 40.25H9.58333C7.46624 40.25 5.75 38.5338 5.75 36.4167V9.58333C5.75 7.46624 7.46624 5.75 9.58333 5.75H36.4167C38.5338 5.75 40.25 7.46624 40.25 9.58333V36.4167C40.25 38.5338 38.5338 40.25 36.4167 40.25ZM9.58333 9.58333V36.4167H36.4167V9.58333H9.58333ZM34.5 32.5833H11.5L17.25 24.9167L19.1667 26.8333L24.9167 19.1667L34.5 32.5833ZM16.2917 21.0833C14.7038 21.0833 13.4167 19.7962 13.4167 18.2083C13.4167 16.6205 14.7038 15.3333 16.2917 15.3333C17.8795 15.3333 19.1667 16.6205 19.1667 18.2083C19.1667 19.7962 17.8795 21.0833 16.2917 21.0833Z" fill="white"/>
</svg>
