<svg width="58" height="58" viewBox="0 0 58 58" fill="none" xmlns="http://www.w3.org/2000/svg">
<path d="M7.25 50.75V12.0833C7.25 9.41396 9.41396 7.25 12.0833 7.25H45.9167C48.5861 7.25 50.75 9.41396 50.75 12.0833V36.25C50.75 38.9195 48.5861 41.0833 45.9167 41.0833H21.75C20.7039 41.0814 19.6857 41.4207 18.85 42.05L7.25 50.75ZM12.0833 12.0833V41.0833L17.2405 37.2167C18.0758 36.5866 19.0943 36.2471 20.1405 36.25H45.9167V12.0833H12.0833ZM31.4167 33.8333H26.5833V26.5833H19.3333V21.75H26.5833V14.5H31.4167V21.75H38.6667V26.5833H31.4167V33.8333Z" fill="white"/>
</svg>
