<?xml version="1.0" encoding="iso-8859-1"?>
<!-- Generator: Adobe Illustrator 18.1.1, SVG Export Plug-In . SVG Version: 6.00 Build 0)  -->
<svg version="1.1" id="Capa_1" xmlns="http://www.w3.org/2000/svg" xmlns:xlink="http://www.w3.org/1999/xlink" x="0px" y="0px"
	 viewBox="0 0 162.341 162.341" style="enable-background:new 0 0 162.341 162.341;" xml:space="preserve">
<g>
	<g>
		<path style="fill:#010002;" d="M5.436,155.303l-2.864-9.857C0.865,139.574,0,133.548,0,127.539
			c0-44.746,46.971-82.182,109.719-87.874V7.038l52.622,52.622l-52.622,52.622V79.81C59.705,84.548,18.247,111.249,8.3,145.445
			L5.436,155.303z M115.686,21.442v23.736l-2.757,0.209C51.948,49.981,5.967,85.299,5.967,127.539c0,2.1,0.119,4.207,0.352,6.301
			c15.269-32.782,56.333-56.494,106.163-60.253l3.21-0.245v24.53l38.218-38.218L115.686,21.442z"/>
	</g>
</g>
<g>
</g>
<g>
</g>
<g>
</g>
<g>
</g>
<g>
</g>
<g>
</g>
<g>
</g>
<g>
</g>
<g>
</g>
<g>
</g>
<g>
</g>
<g>
</g>
<g>
</g>
<g>
</g>
<g>
</g>
</svg>
