<svg width="48" height="48" viewBox="0 0 48 48" fill="none" xmlns="http://www.w3.org/2000/svg">
<path d="M37.354 39.214L25.924 27.782C20.8393 31.3969 13.8329 30.5127 9.80574 25.7479C5.77862 20.983 6.07432 13.9272 10.486 9.51601C14.8965 5.1029 21.9531 4.80592 26.7188 8.83284C31.4845 12.8598 32.3692 19.8669 28.754 24.952L40.184 36.384L37.356 39.212L37.354 39.214ZM18.97 9.99998C15.1774 9.99913 11.9054 12.6614 11.1349 16.3749C10.3645 20.0884 12.3074 23.8326 15.7874 25.3405C19.2673 26.8484 23.3278 25.7057 25.5105 22.6041C27.6932 19.5026 27.3981 15.2946 24.804 12.528L26.014 13.728L24.65 12.368L24.626 12.344C23.1296 10.8384 21.0928 9.99426 18.97 9.99998Z" fill="white"/>
</svg>
